<svg width="15" height="15" xmlns="http://www.w3.org/2000/svg" fill="none">
 <path fill="url(#paint0_linear_1187_3462)" d="m14.63997,8.693c0.07674,-0.42663 0.11679,-0.86596 0.11679,-1.31462c0,-0.3793 -0.02862,-0.75186 -0.0838,-1.11577c-0.02134,-0.14056 -0.14393,-0.24185 -0.28612,-0.24185l-4.74567,0c-0.15521,0 -0.2682,-0.14725 -0.22804,-0.29724l0.56176,-2.09648c0.04148,-0.15483 0.18177,-0.2625 0.34209,-0.2625l2.81859,0c0.18731,0 0.29851,-0.20676 0.18741,-0.35757c-1.34334,-1.82373 -3.50578,-3.00697 -5.9446,-3.00697c-4.07497,0 -7.37838,3.30341 -7.37838,7.37838c0,1.85524 0.68472,3.55053 1.81523,4.84702c0.12038,0.13803 0.34147,0.0809 0.38866,-0.09608l1.63251,-6.12195c0.02998,-0.11241 -0.05475,-0.22272 -0.1711,-0.22272l-1.41795,0c-0.15513,0 -0.26811,-0.14704 -0.22813,-0.29693l0.46036,-1.72637c0.03454,-0.12952 0.15204,-0.21901 0.28605,-0.22179c1.54478,-0.03198 3.07129,-0.43635 4.4267,-1.17632c0.14014,-0.07648 0.30947,0.05157 0.26831,0.20579l-3.00293,11.26111c-0.04484,0.16812 0.03881,0.34483 0.20058,0.40903c0.84171,0.33403 1.75947,0.51759 2.72009,0.51759c2.32899,0 4.40589,-1.07904 5.75814,-2.76447c0.11979,-0.14931 0.00986,-0.36396 -0.18161,-0.36396l-4.81629,0c-0.15521,0 -0.2682,-0.14725 -0.22804,-0.29724l0.56176,-2.09646c0.04148,-0.15484 0.18182,-0.26251 0.34209,-0.26251l5.48509,0c0.16628,0 0.31105,-0.11547 0.34046,-0.27911z"/>
 <defs>
  <linearGradient y2="0.828" x2="0.796" y1="0.084" x1="0.172" id="paint0_linear_1187_3462">
   <stop stop-color="#00DDFF"/>
   <stop stop-color="#0C60F2" offset="1"/>
  </linearGradient>
 </defs>

</svg>